<svg width="512" height="512" viewBox="0 0 512 512" fill="none" xmlns="http://www.w3.org/2000/svg">
<path d="M441.6 171.61L266.87 85.3698C263.489 83.702 259.77 82.8345 256 82.8345C252.23 82.8345 248.511 83.702 245.13 85.3698L70.4 171.61C63.7014 174.892 58.0541 179.982 54.0958 186.304C50.1375 192.627 48.0261 199.93 48 207.39V392C48 414.09 66.14 432 88.52 432H423.52C445.9 432 464.04 414.09 464.04 392V207.39C464.01 199.926 461.893 192.62 457.927 186.297C453.962 179.974 448.306 174.886 441.6 171.61Z" stroke="white" stroke-width="32" stroke-linecap="round" stroke-linejoin="round"/>
<path d="M397.33 368L268.07 267.46C263.857 264.183 258.672 262.404 253.335 262.404C247.998 262.404 242.813 264.183 238.6 267.46L109.33 368M309.33 295L445.33 192M61.3301 192L200.33 297" stroke="white" stroke-width="32" stroke-linecap="round" stroke-linejoin="round"/>
</svg>
